<?xml version="1.0" encoding="UTF-8" standalone="no"?>
<svg xmlns:rdf="http://www.w3.org/1999/02/22-rdf-syntax-ns#" xmlns="http://www.w3.org/2000/svg" height="252px" width="502px" xmlns:cc="http://creativecommons.org/ns#" xmlns:xlink="http://www.w3.org/1999/xlink" xmlns:dc="http://purl.org/dc/elements/1.1/">
<title>River 3D: meandering with sandy banks</title>
<desc xmlns:ian_image_library="http://ian.umces.edu/imagelibrary/">
      <ian_image_library:title>River 3D: meandering with sandy banks</ian_image_library:title>
      <ian_image_library:descr>Illustration of base with meandering river with sandy banks</ian_image_library:descr>
      <ian_image_library:scene>
		<ian_image_library:contains>symbol,vector,illustration,diagram,template,base,ecosystem,aquatic,freshwater,river,stream,tributary,sandy,bottom,banks,sediment,deposition,floodplain,meandering,channel,sinuousity</ian_image_library:contains>
        <ian_image_library:when>2005-07-28</ian_image_library:when> 
	  </ian_image_library:scene>
   </desc>
    <metadata
		id="metadata-iil-d94ed4c24e4f39043d89f9b31fb99798">
      <rdf:RDF>
      <cc:Work
         rdf:about="">
        <dc:format>image/svg+xml</dc:format>
        <dc:type
           rdf:resource="http://purl.org/dc/dcmitype/StillImage" />
        <cc:license
           rdf:resource="http://creativecommons.org/licenses/by-sa/3.0/" />
        <dc:title>River 3D: meandering with sandy banks</dc:title>
		<dc:date>2005-07-28</dc:date>
        <dc:creator>
			<cc:Agent>
				<dc:title>Tracey Saxby</dc:title>
			</cc:Agent>	
		</dc:creator>   
		<dc:rights>
          <cc:Agent>
            <dc:title>Tracey Saxby, Integration and Application Network</dc:title>
          </cc:Agent>
        </dc:rights>
        <dc:publisher>
          <cc:Agent>
            <dc:title>Integration and Application Network</dc:title>
          </cc:Agent>
        </dc:publisher>
		<dc:identifier>http://ian.umces.edu/imagelibrary/displayimage-6214.html</dc:identifier>
        <dc:source>http://ian.umces.edu/imagelibrary/displayimage-6214.html</dc:source>
        <dc:language>en-US</dc:language>
        <dc:subject>
          <rdf:Bag>
            <rdf:li>symbol,vector,illustration,diagram,template,base,ecosystem,aquatic,freshwater,river,stream,tributary,sandy,bottom,banks,sediment,deposition,floodplain,meandering,channel,sinuousity</rdf:li>
          </rdf:Bag>
        </dc:subject>
        <dc:coverage></dc:coverage>
        <dc:description>Illustration of base with meandering river with sandy banks</dc:description>
        <dc:contributor>
          <cc:Agent>
            <dc:title></dc:title>
          </cc:Agent>
        </dc:contributor>
      </cc:Work>
      <cc:License
         rdf:about="http://creativecommons.org/licenses/by-sa/3.0/">
        <cc:permits
           rdf:resource="http://creativecommons.org/ns#Reproduction" />
        <cc:permits
           rdf:resource="http://creativecommons.org/ns#Distribution" />
        <cc:requires
           rdf:resource="http://creativecommons.org/ns#Notice" />
        <cc:requires
           rdf:resource="http://creativecommons.org/ns#Attribution" />
        <cc:permits
           rdf:resource="http://creativecommons.org/ns#DerivativeWorks" />
        <cc:requires
           rdf:resource="http://creativecommons.org/ns#ShareAlike" />
      </cc:License>
    </rdf:RDF>
  </metadata>
	
 <defs></defs>
 <linearGradient id="ian_symbols_e95ba1508618d67471ea66828e1ac08d" y2="111.41" gradientUnits="userSpaceOnUse" x2="500.25" y1="111.41" x1=".251">
  <stop stop-color="#89AC7B" offset=".0056"/>
  <stop stop-color="#C3BD92" offset="1"/>
 </linearGradient>
 <path stroke-linejoin="round" d="m155.57 10.592c-4.173-1.751-7.022-3.131-11.901-2.676-5.2.489-7.429.901-12.782.901-6.341 0-12.611.62-20.183-1.753-7.048-2.208-27.212-1.667-31.713-.401-4.503 1.266-4.26 11.954-11.822 19.049-7.563 7.096-16.754 40.486-27.709 62.053-5.075 9.987-9.106 20.267-13.642 30.508-2.632 5.94-6.831 13.637-8.641 21.161s-8.813 16.86-11.809 25.85c-3 8.998-5.123 29.026-5.123 29.026l313.39 22.954 186.61-22.954s-4.875-16.262-13.495-29.324c-2.096-3.175-4.085-5.334-6.934-6.563-7.498-3.232-11.617-11.281-18.655-13.407-31.045-9.371-83.202-3.774-125.62-10.22-22.413-3.403-43.097 5.14-60.098.186-30.092-8.778-48.644-31.434-44.793-34.643 13.328-11.106 48.551-26.877 46.331-41.537-2.224-14.664-88.094 5.105-115.64-6.888-27.545-11.997 26.213-17.771 24.881-25.325s-37.318-6.665-40.874-10.218c-3.57-3.566 10.2-5.79 10.2-5.79z" stroke="#007647" stroke-linecap="round" stroke-width=".5" fill="url(#ian_symbols_e95ba1508618d67471ea66828e1ac08d)"/>
 <linearGradient id="ian_symbols_6093651f3e0bb10451bf1b9b59435bb2" y2="64.817" gradientUnits="userSpaceOnUse" x2="452.09" y1="64.817" x1="145.5">
  <stop stop-color="#89AC7B" offset=".0056"/>
  <stop stop-color="#C3BD92" offset="1"/>
 </linearGradient>
 <path stroke-linejoin="round" d="m343.09 2.278c-6.245 0-16.466-3.137-23.279-1.608-6.814 1.528-3.8-.936-18.517.974-14.716 1.912-38.851 2.592-46.847 2.832-7.998.239-70.391 1.101-73.467 1.289-3.075.192-15.511 1.434-17.736 1.815-2.225.382-5.254 2.623-5.254 2.623l-6.414 2.17s-7.646 1.556-5.775 4.665c1.869 3.108 50.203-.221 40.43 12.661-5.776 5.332-44.428 11.996-29.768 21.326 14.662 9.329 159.62-13.549 113.73 22.658-12.339 9.739-33.765 18.662-29.32 35.542 4.441 16.883 53.377 20.074 53.377 20.074s40.764.193 43.981 0c3.219-.19 15.017-2.998 18.992-2.998s33.928-10.994 39.984-10.994c4.719 0 47.047.857 54.885 1.113 0 0-.969-4.859-5.09-14.506-.869-2.036-.84-5.389-2.37-7.384-4.592-5.983-18.125-13.898-21.33-19.141-4.271-6.985-27.816-22.662-32.263-32.622-4.445-9.958-7.884-15.708-12.05-22.94-4.168-7.233-12.243-14.795-15.981-16.456-3.73-1.65-15.74-1.079-19.91-1.079z" stroke="#007647" stroke-linecap="round" stroke-width=".5" fill="url(#ian_symbols_6093651f3e0bb10451bf1b9b59435bb2)"/>
 <linearGradient id="ian_symbols_4083092c70493874d568357610047ce3" y2="112.34" gradientUnits="userSpaceOnUse" x2="451.75" y1="112.34" x1="245.31">
  <stop stop-color="#F0DDAE" offset="0"/>
  <stop stop-color="#F8F0B9" offset="1"/>
 </linearGradient>
 <path stroke-linejoin="round" d="m451.75 111.16s-1.92-8.953-6.084-10.582c-4.164-1.624-5.106-.378-10.853-3.057-5.745-2.683-11.382-3.463-25.378-5.461-13.992-2-25.156 3.164-37.15 5.161-11.994 1.999-24.601 6.726-37.532 10.726-12.934 3.997-22.598 7.659-37.535 7.659-14.938 0-47.496-2.324-49.023-9.959l-2.883 3.124 39.097 24.311 106.8-19.774 60.53-2.15z" stroke="#957966" stroke-linecap="round" stroke-width=".5" fill="url(#ian_symbols_4083092c70493874d568357610047ce3)"/>
 <linearGradient id="ian_symbols_2f64bfef69aba74461f736b6abba2d85" y2="63.072" gradientUnits="userSpaceOnUse" x2="301.37" y1="63.072" x1="153.79">
  <stop stop-color="#F0DDAE" offset="0"/>
  <stop stop-color="#F8F0B9" offset="1"/>
 </linearGradient>
 <path stroke="#957966" stroke-width=".5" d="m157.79 47.022c3.556 1.334 10.742 3.09 10.742 3.09s6.467.459 10.143.019c3.678-.44 11.674-2.439 17.896-3.772 6.221-1.334 36.818-7.676 41.317-7.554 3.361.093 14.439-1.555 25.102-.221 10.662 1.333 18.678 2.85 23.77 4.888 2.286.913 7.23 2.34 10.641 5.591 2.077 1.985 2.434 4.47 3.126 7.404.577 2.453 1.333 5.223.417 8.278-.485 1.614-1.992 3.978-3.216 5.748-2.377 3.451-5.532 6.522-10.968 10.52-7.108 3.553-22.109 7.07-22.109 7.07l17.021-22.112-5.133-15.169-83.973 5.727-38.771-4.175 3.99-5.332z" fill="url(#ian_symbols_2f64bfef69aba74461f736b6abba2d85)"/>
 <linearGradient id="ian_symbols_6cb53f08a0dc99545d3270d5b14c5658" y2="74.234" gradientUnits="userSpaceOnUse" x2="241.52" y1="156.2" x1="241.52">
  <stop stop-color="#F2E1B0" offset="0"/>
  <stop stop-color="#F8F0B9" offset="1"/>
 </linearGradient>
 <path stroke="#957966" stroke-width=".5" d="m247.6 147.29c-10.994-5.997-19.787-9.617-22.526-12.625-2.741-3.006-11.644-9.391-13.51-11.203-7.571-7.356-11.349-21.793-6.016-28.458 5.332-6.664 20.316-14.455 23.794-15.563 4.861-1.541 17.821-5.388 23.063-5.202 5.246.188-19.09 49.196-19.09 49.196l46.666 32.765c.01 0-21.37-2.91-32.37-8.91z" fill="url(#ian_symbols_6cb53f08a0dc99545d3270d5b14c5658)"/>
 <linearGradient id="ian_symbols_24c374b1a1478f043540fe27e43fc505" y2="46.313" gradientUnits="userSpaceOnUse" x2="187.56" y1="46.313" x1="145.01">
  <stop stop-color="#F0DDAE" offset="0"/>
  <stop stop-color="#F8F0B9" offset="1"/>
 </linearGradient>
 <path stroke="#957966" stroke-width=".5" d="m163.25 62.352c-7.108-2.22-15.105-3.999-17.697-12.009-1.938-5.986 1.695-11.269 4.81-12.625 3.113-1.356 11.329-3.575 18.329-6.019 6.998-2.445 13.207-1.337 18.867-1.337l-38.205 12.884c-.01 0 21 21.329 13.89 19.106z" fill="url(#ian_symbols_24c374b1a1478f043540fe27e43fc505)"/>
 <linearGradient id="ian_symbols_ecd995b2f00b0514c1be7882e9edecd6" y2="25.839" gradientUnits="userSpaceOnUse" x2="194.21" y1="25.839" x1="146.69">
  <stop stop-color="#F0DDAE" offset="0"/>
  <stop stop-color="#F8F0B9" offset="1"/>
 </linearGradient>
 <path stroke="#957966" stroke-width=".5" d="m180.91 35.736c2.446.177 7.538-.708 11.537-5.374 6.664-9.107-6.885-12.885-17.55-13.329-4.672-.193-7.65-.146-12.243-.243-4.138-.086-11.83-.868-15.966-.868 0 0 6.894 2.815 13.794 4.098 4.993.928 13.016.271 17.471 1.055 4.454.788 8.006 3.02 9.388 4.398 4.66 4.671-16.22 9.555-6.43 10.263z" fill="url(#ian_symbols_ecd995b2f00b0514c1be7882e9edecd6)"/>
 <linearGradient id="ian_symbols_dfef342d7c9b7d54015bcd0c1f0ef2c2" y2="85.054" gradientUnits="userSpaceOnUse" x2="479.83" y1="85.054" x1="143.59">
  <stop stop-color="#94CDE9" offset=".0056"/>
  <stop stop-color="#00A2CF" offset="1"/>
 </linearGradient>
 <path stroke-linejoin="round" d="m450.82 109.38s-9.776-4.113-18.202-7.176c-8.428-3.063-19.752-7.887-53.738-1.89-33.985 6-58.769 18.606-80.694 17.8-21.926-.806-37.767-1.777-46.651-11.33-5.774-6.218 14.017-14.364 18.872-16.413 4.853-2.051 13.095-6.02 19.942-13.574 6.851-7.554 8.184-13.551 6.851-21.104-1.335-7.553-15.328-11.551-28.214-14.216-12.882-2.667-16.881-1.11-31.098-.667s-26.879 4.664-38.429 6.886c-11.553 2.223-22.732 4.435-26.134 4.231-3.354-.2-11.958-1.329-13.534-4.231-1.831-3.377 3.618-4.351 6.224-5.42 2.606-1.068 7.53-1.805 13.102-3.91 5.574-2.105 11.661-4.051 12.886-10.219 1.654-8.332-9.773-9.108-15.095-9.551-5.319-.446-25.671-.533-27.555-2.888-1.887-2.358 4.56-1.333 9.446-6.002l-5.577.003c-6.223 2.666-14.002 3.5-6.632 9.287 3.999 2.106 10.84 3.055 16.314 3.159 5.472.104 20.649.294 21.101 3.992.475 3.9-24.296 9.133-31.456 11.995-6.993 2.799-6.901 7.21-4.977 11.996 1.928 4.787 6.764 9.33 16.66 12.44 9.9 3.111 27.451-.889 50.11-4.222 10.133-1.489 24.378-4.246 33.036-4.257 10.697-.017 19.173 3.55 21.606 6.036 11.379 11.613-31.175 17.08-38.976 21.311-7.796 4.234-25.095 11.238-22.407 25.882 2.686 14.644 19.719 25.223 19.719 25.223s27.476 19.546 48.702 23.143 43.842 6.516 69.849 3.389c26.013-3.125 44.71-12.766 77.177-11.943 32.466.819 56.785 11.275 56.785 11.275l-29.02-49.02z" stroke="#007198" stroke-linecap="round" stroke-width=".5" fill="url(#ian_symbols_dfef342d7c9b7d54015bcd0c1f0ef2c2)"/>
 <linearGradient id="ian_symbols_e963a47e364686e425de706c4bd2faef" y2="190.09" gradientUnits="userSpaceOnUse" x2="250.25" y1="250.39" x1="250.25">
  <stop stop-color="#967D5F" offset="0"/>
  <stop stop-color="#D7BD9C" offset="1"/>
 </linearGradient>
 <path stroke-linejoin="round" d="m500.25 250.39h-500v-56.08s26.783-.118 42.338-2.338c4.577-.652 22.45 2.743 45.69 2.272 12.178-.243 25.834-2.643 39.822-3.099 17.749-.581 36.035.331 52.528.08 29.997-.455 30.736-1.662 34.872-.863 11.628 2.245 20.783 3.439 25.229 5.103 4.447 1.667 54.858 4.892 59.3 7.141 4.444 2.25 59.849-6.865 65.615-3.997s42.205 5.091 47.023 2.995c4.817-2.093 35.726-6.556 38.212-7.188 2.63-.671 9.706.02 13.608-1.112 5.889-1.706 5.36-.806 13.368-1.332s22.394 2.338 22.394 2.338v56.08z" stroke="#967D5F" stroke-linecap="round" stroke-width=".5" fill="url(#ian_symbols_e963a47e364686e425de706c4bd2faef)"/>
</svg>
