<?xml version="1.0" encoding="UTF-8" standalone="no"?>
<svg xmlns:rdf="http://www.w3.org/1999/02/22-rdf-syntax-ns#" xmlns="http://www.w3.org/2000/svg" height="237px" width="502px" xmlns:cc="http://creativecommons.org/ns#" xmlns:xlink="http://www.w3.org/1999/xlink" xmlns:dc="http://purl.org/dc/elements/1.1/">
 <title>Stream 3D: sandy banks in valley</title>
 <desc xmlns:ian_image_library="http://ian.umces.edu/imagelibrary/">
  <ian_image_library:title>Stream 3D: sandy banks in valley</ian_image_library:title>
  <ian_image_library:descr>Illustration of stream base with sandy banks in valley</ian_image_library:descr>
  <ian_image_library:scene>
   <ian_image_library:contains>symbol vector illustration diagram template base ecosystem aquatic freshwater river stream tributary floodplain valley sandy banks bottom sediment deposition</ian_image_library:contains>
   <ian_image_library:when>2005-07-28</ian_image_library:when>
  </ian_image_library:scene>
 </desc>
 <metadata id="metadata-iil-17ffed2a3b3be8b405ba724f7ed9a7f4">
  <rdf:RDF>
   <cc:Work rdf:about="">
    <dc:format>image/svg+xml</dc:format>
    <dc:type rdf:resource="http://purl.org/dc/dcmitype/StillImage"/>
    <cc:license rdf:resource="http://creativecommons.org/licenses/by-sa/3.0/"/>
    <dc:title>Stream 3D: sandy banks in valley</dc:title>
    <dc:date>2005-07-28</dc:date>
    <dc:creator>
     <cc:Agent>
      <dc:title>Tracey Saxby</dc:title>
     </cc:Agent>
    </dc:creator>
    <dc:rights>
     <cc:Agent>
      <dc:title>Tracey Saxby, Integration and Application Network</dc:title>
     </cc:Agent>
    </dc:rights>
    <dc:publisher>
     <cc:Agent>
      <dc:title>Integration and Application Network</dc:title>
     </cc:Agent>
    </dc:publisher>
    <dc:identifier>http://ian.umces.edu/imagelibrary/displayimage-6219.html</dc:identifier>
    <dc:source>http://ian.umces.edu/imagelibrary/displayimage-6219.html</dc:source>
    <dc:language>en-US</dc:language>
    <dc:subject>
     <rdf:Bag>
      <rdf:li>symbol vector illustration diagram template base ecosystem aquatic freshwater river stream tributary floodplain valley sandy banks bottom sediment deposition</rdf:li>
     </rdf:Bag>
    </dc:subject>
    <dc:coverage/>
    <dc:description>Illustration of stream base with sandy banks in valley</dc:description>
    <dc:contributor>
     <cc:Agent>
      <dc:title/>
     </cc:Agent>
    </dc:contributor>
   </cc:Work>
   <cc:License rdf:about="http://creativecommons.org/licenses/by-sa/3.0/">
    <cc:permits rdf:resource="http://creativecommons.org/ns#Reproduction"/>
    <cc:permits rdf:resource="http://creativecommons.org/ns#Distribution"/>
    <cc:requires rdf:resource="http://creativecommons.org/ns#Notice"/>
    <cc:requires rdf:resource="http://creativecommons.org/ns#Attribution"/>
    <cc:permits rdf:resource="http://creativecommons.org/ns#DerivativeWorks"/>
    <cc:requires rdf:resource="http://creativecommons.org/ns#ShareAlike"/>
   </cc:License>
  </rdf:RDF>
 </metadata>
 <defs></defs>
 <linearGradient id="ian_symbols_7c3a254083cbeb442d92162c241e9930" y2="96.607" gradientUnits="userSpaceOnUse" x2="302.9" y1="96.607" x1=".4141">
  <stop stop-color="#89AC7B" offset=".0056"/>
  <stop stop-color="#C3BD92" offset="1"/>
 </linearGradient>
 <path stroke="#231F20" stroke-width=".5" d="m188.61 45.806c-4.164-1.75-7.477-3.157-12.349-2.701-5.193.488-10.08-4.549-15.427-4.549-6.335 0 .327.573-5.978-.003-8.182-.75-8.126-2.849-16.815-7.22-10.596-5.329-5.341-4.708-17.604-10.894-6.623-3.344-12.131-1.116-19.694-3.485-7.048-2.207-27.185-13.892-31.684-12.63-4.493 1.262-4.25 3.705-11.803 10.792-7.554 7.086-16.732 20.821-27.672 42.359-5.067 9.974-9.097 20.242-13.629 30.468-2.624 5.933-4.752 4.561-6.631 10.487-.713 2.256-3.001 9.809-4.612 11.981-1.246 1.676-4.306 3.22-4.306 3.22s69.263 72.455 69.263 75.014 228.36 1.908 232.33-3.301c10.788-14.142-80.147-36.631-66.834-47.725 13.309-11.089 39.232-22.07 37.012-36.712-2.219-14.641-60.084-1.887-87.594-13.866-27.511-11.981 32.835-17.749 31.499-25.292-1.328-7.542-34.604-6.655-38.155-10.204-3.55-3.554 10.67-5.742 10.67-5.742z" fill="url(#ian_symbols_7c3a254083cbeb442d92162c241e9930)"/>
 <linearGradient id="ian_symbols_42813a405961eab4993a9c5af3236d87" y2="100.93" gradientUnits="userSpaceOnUse" x2="500.41" y1="100.93" x1="176.81">
  <stop stop-color="#89AC7B" offset=".0056"/>
  <stop stop-color="#C3BD92" offset="1"/>
 </linearGradient>
 <path stroke="#231F20" stroke-width=".5" d="m354.61 9.145c-6.238 0-17.018 1.257-23.819 2.786-6.809 1.528-24.921-.422-39.619 1.486-14.698 1.909-39.062 17.095-47.048 17.334s-30.196 10.015-33.27 10.202c-3.07.192-12.832 1.431-15.054 1.813-2.22.382-5.242 2.619-5.242 2.619l-6.407 2.167s-7.637 1.555-5.77 4.659c1.867 3.103 47.476-.221 37.711 12.646-5.764 5.326-51.021 11.979-36.379 21.296 14.641 9.318 103.36 6.455 94.95 19.709-12.437 19.585-39.93 21.933-35.492 38.792 4.437 16.859 51.495 17.708 51.495 17.708s14.212 24.704 17.424 24.511c3.214-.189 8.011-.444 11.979-.444s144.16 15.179 150.21 15.179c4.712 0 22.303-75.156 30.13-74.901 0 0-12.999-24.071-16.165-34.058-3.167-9.985-17.929-15.268-22.195-22.243-4.266-6.979-33.322-26.133-37.76-36.08-4.442-9.947-7.877-4.791-12.036-12.016-4.162-7.223-12.227-20.221-15.96-21.88-3.72-1.663-37.5 8.712-41.67 8.712z" fill="url(#ian_symbols_42813a405961eab4993a9c5af3236d87)"/>
 <linearGradient id="ian_symbols_84dadc46eb39da54a1962f00a3465591" y2="121.44" gradientUnits="userSpaceOnUse" x2="307.88" gradientTransform="matrix(.9927 .1208 -.1208 .9927 31.354 13.569)" y1="121.44" x1="220.45">
  <stop stop-color="#F0DDAE" offset="0"/>
  <stop stop-color="#F8F0B9" offset="1"/>
 </linearGradient>
 <path stroke="#957966" stroke-width=".5" d="m320.31 187.76c.147-1.913-.71-16.672-4.394-21.091-3.686-4.419-10.014-10.317-14.793-11.345-2.966-.636-11.844-4.272-15.47-4.716-3.625-.44-12.063-2.076-15.618-3.093-3.555-1.015-5.893-.588-10.313-1.769s-21.048-2.85-21.088-10.535l-.75 6.159 55.283 25.71 23.847 29.519c0 .01 3.15-6.91 3.29-8.83z" fill="url(#ian_symbols_84dadc46eb39da54a1962f00a3465591)"/>
 <linearGradient id="ian_symbols_39c65613e6abc6f46d75d9d0098e8a17" y2="96.356" gradientUnits="userSpaceOnUse" x2="282.31" y1="96.356" x1="181.04">
  <stop stop-color="#F0DDAE" offset="0"/>
  <stop stop-color="#F8F0B9" offset="1"/>
 </linearGradient>
 <path stroke="#957966" stroke-width=".5" d="m181.04 82.159c3.549 1.329 6.557 1.869 9.737 1.998 3.972.154 7.293 1.344 11.117 1.77 4.159.467 8.768.751 12.965.669 4.725-.097 7.96-1.453 12.455-1.33 3.355.091 6.807.907 9.977 1.872 5.271 1.604 10.204.072 15.672.348 5.751.29 44.766 3.991 22.584 23.069l-4.188-14.598-88.388-7.855-1.93-5.948z" fill="url(#ian_symbols_39c65613e6abc6f46d75d9d0098e8a17)"/>
 <linearGradient id="ian_symbols_4e672b5e760dca0401faf317a1cf1ead" y2="109.6" gradientUnits="userSpaceOnUse" x2="249.1" y1="158.53" x1="249.1">
  <stop stop-color="#F2E1B0" offset="0"/>
  <stop stop-color="#F8F0B9" offset="1"/>
 </linearGradient>
 <path stroke="#957966" stroke-width=".5" d="m262.82 157.5c-3.094 1.032-6.335 1.032-6.335 1.032s-14.735-.738-20.925-4.716c-6.185-3.979-13.564-11.585-8.24-18.241s11.247-9.809 16.671-12.521c5.421-2.711 22.997-13.634 28.233-13.45 5.24.188-33.052 25.147-33.052 25.147l9.905 14.031 13.74 8.72z" fill="url(#ian_symbols_4e672b5e760dca0401faf317a1cf1ead)"/>
 <linearGradient id="ian_symbols_c015219ed718b014d97ec91c0fd2ae8e" y2="78.248" gradientUnits="userSpaceOnUse" x2="218.89" y1="78.248" x1="175.04">
  <stop stop-color="#F0DDAE" offset="0"/>
  <stop stop-color="#F8F0B9" offset="1"/>
 </linearGradient>
 <path stroke="#957966" stroke-width=".5" d="m184.12 91.32c-2.759.115-8.964-3.564-9.079-8.507-.116-4.94 4.021-10.111 9.769-11.378 5.749-1.263 10.448-2.212 13.902-3.838 3.454-1.623 14.522-2.424 20.175-2.424 0 0-33.868 9.811-38.158 12.869-4.28 3.057 6.16 13.163 3.4 13.278z" fill="url(#ian_symbols_c015219ed718b014d97ec91c0fd2ae8e)"/>
 <linearGradient id="ian_symbols_16c138bc30e21f7461c31be65dd46c48" y2="60.983" gradientUnits="userSpaceOnUse" x2="221.08" y1="60.983" x1="179.27">
  <stop stop-color="#F0DDAE" offset="0"/>
  <stop stop-color="#F8F0B9" offset="1"/>
 </linearGradient>
 <path stroke="#957966" stroke-width=".5" d="m208.68 70.886c2.28.178 7.025-.706 10.752-5.365 6.209-9.097-6.417-12.869-16.356-13.312-4.354-.196-7.951-1.015-12.229-1.111-3.853-.083-7.719 0-11.572 0 0 0 6.427 2.813 12.854 4.095 4.65.928 9.644.268 13.795 1.053 4.15.788 7.459 3.016 8.745 4.393 4.35 4.659-15.11 9.541-5.98 10.247z" fill="url(#ian_symbols_16c138bc30e21f7461c31be65dd46c48)"/>
 <linearGradient id="ian_symbols_236a9369f52c32845d56bad902df7d50" y2="121.82" gradientUnits="userSpaceOnUse" x2="318.67" y1="121.82" x1="176.36">
  <stop stop-color="#94CDE9" offset=".0056"/>
  <stop stop-color="#00A2CF" offset="1"/>
 </linearGradient>
 <path stroke="#007198" stroke-width=".5" d="m316.16 198.76c-.845-5.958 4.586-5.137 1.623-15.768-3.976-14.247-5.58-18.066-19.746-24.606-12.11-5.587-40.702-9.601-50.606-15.377-5.767-6.212 12.832-15.002 15.892-17.559 6.669-5.57 12.32-8.147 16.774-16.883 3.583-7.024-.16-11.495-5.624-14.14-10.997-5.321-15.478-3.439-27.816-4.368-5.437-.406-15.206-.988-20.341-.689-5.142.297-18.199-1.425-18.199-1.425l-11.557-.889s-11.94-1.329-13.516-4.225c-1.829-3.374 3.552-6.436 8.215-7.409 4.661-.976 15.86-4.213 15.86-4.213s10.859-3.147 12.066-9.309c1.15-5.863-8.019-7.028-13.33-7.472-5.314-.441-23.475-1.991-24.583-4.21-1.111-2.218 5.544-.665 10.425-5.325l-4.879.002c-6.213 2.661-14.571 2.667-7.859 8.729 2.737 2.473 6.396 2.232 14.827 3.563 8.429 1.331 19.646.43 20.097 4.124.474 3.894-10.365 6.618-18.257 8.748-7.264 1.962-17.931 2.925-19.178 11.044-.889 5.769 5.203 10.103 12.164 11.025 7.816 1.035 20.619 2.835 38.184 3.832 17.562.996 36.5.026 41.271 4.126 7.219 6.208-14.497 19.709-22.286 23.936-7.788 4.229-20.575 10.853-14.858 22.288 5.717 11.433 44.453 16.404 52.973 25.779 6.064 6.68-13.255 18.196-18.801 23.742l51.1 2.93z" fill="url(#ian_symbols_236a9369f52c32845d56bad902df7d50)"/>
 <linearGradient id="ian_symbols_061292506e71e4f451aedda3ee920d7c" y2="230.13" gradientUnits="userSpaceOnUse" x2="285.1" y1="181.99" x1="285.1">
  <stop stop-color="#94CDE9" offset=".0056"/>
  <stop stop-color="#00A2CF" offset="1"/>
 </linearGradient>
 <path stroke="#007198" stroke-width=".5" d="m376.03 184.42c-5.827.903-9.9-2.43-9.9-2.43s-2.329 2.655-6.089 2.557c-3.761-.132-5.85-2.324-5.85-2.324s-2.984 2.192-5.817 2.423c-2.818.215-6.137-2.655-6.137-2.655s-1.889 2.425-5.65 2.604c-3.758.146-6.135-2.471-6.135-2.471s-3.07 2.062-5.663 2.521c-2.582.444-6.292-2.572-6.292-2.572s-1.818 1.716-5.073 2.474c-3.222.708-6.878-2.371-6.878-2.371s-2.614 2.01-5.665 2.47c-3.069.444-6.256-2.572-6.256-2.572s-2.596 2.242-5.768 2.572c-3.188.313-6.187-2.572-6.187-2.572s-2.243 2.178-5.697 2.521c-3.475.315-6.14-2.471-6.14-2.471s-2.981 2.01-5.648 2.471c-2.647.444-6.203-2.419-6.203-2.419s-2.632 2.371-5.7 2.519c-3.067.166-6.306-2.519-6.306-2.519s-2.176 2.371-5.78 2.47c-3.608.096-6.006-2.572-6.006-2.572s-2.595 1.996-5.544 2.521c-2.936.495-6.49-2.471-6.49-2.471s-2.446 2.239-5.769 2.471c-3.304.215-5.951-2.419-5.951-2.419s-1.653 1.431-1.839 1.431c-.15 0-.401.809-3.811 1.039-3.421.215-6.237-2.289-6.237-2.289s-4.286 2.027-5.381 2.7v45.078h181.86v-45.72z" fill="url(#ian_symbols_061292506e71e4f451aedda3ee920d7c)"/>
 <linearGradient id="ian_symbols_a70aa4a2410cd46441f317e7e308b44e" y2="113.63" gradientUnits="userSpaceOnUse" x2="250.41" y1="235.01" x1="250.41">
  <stop stop-color="#967D5F" offset="0"/>
  <stop stop-color="#D7BD9C" offset="1"/>
 </linearGradient>
 <path stroke="#967D5F" stroke-width=".5" d="m500.41 235.01h-500v-121.38s24.449 21.674 38.647 19.457c4.178-.654 20.491 13.633 41.708 13.163 11.118-.241 23.584 8.255 36.354 7.8 16.199-.579 32.894 11.223 47.95 10.973 27.38-.453 38.134 6.069 41.909 6.87 10.615 2.241 34.76.909 38.297 3.299 3.544 2.394 25.02 2.163 29.072 4.409 4.058 2.246.769 5.926 6.885 8.837 6.122 2.909 5.345 10.104 10.609 12.967 5.265 2.864-.192 1.279 8.103 3.536 8.298 2.252 6.785-4.524 10.757-6.481 2.094-1.034 2.242-6.095 4.421-9.726 2.179-3.633 3.279-7.286 5.156-10.462 1.88-3.171 18.665-5.126 25.564-6.942 6.9-1.816 6.088-5.265 17.778-5.916 17.172-.953 22.171-3.526 30.888-2.438 8.716 1.091 16.346-.777 23.98-2.51 11.384-2.585 24.003-9.522 26.139-10.198 5.373-1.707 28.032-12.3 35.343-12.823 7.309-.524 20.439-10.74 20.439-10.74v108.3z" fill="url(#ian_symbols_a70aa4a2410cd46441f317e7e308b44e)"/>
 <linearGradient id="ian_symbols_bac788e60059905429a79b461e7e223a" y2="178.86" gradientUnits="userSpaceOnUse" x2="297.19" y1="206.37" x1="297.19">
  <stop stop-color="#E9CBA4" offset=".0056"/>
  <stop stop-color="#F8F0B9" offset="1"/>
 </linearGradient>
 <path stroke="#957966" stroke-width=".5" d="m274.35 179.6c.963 2.741 3.87 8.475 5.177 10.171.952 1.133 2.154.879 2.998 1.665 1.482 1.381 2.51 3.577 3.789 5.059 1.053 1.219 2.07 3.829 3.091 4.761 2.002 1.821 4.035 3.048 6.474 3.513 1.469.279 3.087 2.073 4.931 1.479 1.474-.429 3.514-.538 5.613-1.922 1.229-.815 1.694-1.893 2.864-3.191 2.159-2.396 4.827-5.533 5.782-9.08.313-1.142 1.259-1.899 1.887-3.041 1.258-2.661 1.571-7.224 2.987-9.883.037-.091.078-.179.12-.27-.152.032-.282.073-.382.139-.535.364-2.29 3.891-2.465 3.93-.918.192-3.696 6.806-4.141 8.617-.443 1.813-1.092 3.175-2.134 4.37-1.039 1.192-3.133 1.597-4.037 2.205-.905.608-2.318 3.71-3.334 4.335-1.014.631-4.032 1.282-5.994-.002-1.959-1.288-4.318-.623-5.565-2.258-1.241-1.638-2.392-3.45-3.839-5.112-1.443-1.661-3.68-5.472-4.641-6.754-.958-1.284-4.036-2.188-4.873-3.556-.61-.996-3.096-4.436-3.096-4.436s-1.48-1.5-1.22-.76z" fill="url(#ian_symbols_bac788e60059905429a79b461e7e223a)"/>
</svg>
