<?xml version="1.0" encoding="UTF-8" standalone="no"?>
<svg xmlns:rdf="http://www.w3.org/1999/02/22-rdf-syntax-ns#" xmlns="http://www.w3.org/2000/svg" height="356px" width="502px" xmlns:cc="http://creativecommons.org/ns#" xmlns:xlink="http://www.w3.org/1999/xlink" xmlns:dc="http://purl.org/dc/elements/1.1/">
<title>River 3D: mountains and plain</title>
<desc xmlns:ian_image_library="http://ian.umces.edu/imagelibrary/">
      <ian_image_library:title>River 3D: mountains and plain</ian_image_library:title>
      <ian_image_library:descr>Illustration of river base with mountains and plains</ian_image_library:descr>
      <ian_image_library:scene>
		<ian_image_library:contains>symbol,vector,illustration,diagram,template,base,ecosystem,aquatic,freshwater river,stream,tributary,terrestrial,mountains,floodplain</ian_image_library:contains>
        <ian_image_library:when>2010-03-17</ian_image_library:when> 
	  </ian_image_library:scene>
   </desc>
    <metadata
		id="metadata-iil-301a60833dc536e40dbfc2cf38346c16">
      <rdf:RDF>
      <cc:Work
         rdf:about="">
        <dc:format>image/svg+xml</dc:format>
        <dc:type
           rdf:resource="http://purl.org/dc/dcmitype/StillImage" />
        <cc:license
           rdf:resource="http://creativecommons.org/licenses/by-sa/3.0/" />
        <dc:title>River 3D: mountains and plain</dc:title>
		<dc:date>2010-03-17</dc:date>
        <dc:creator>
			<cc:Agent>
				<dc:title>Jane Hawkey</dc:title>
			</cc:Agent>	
		</dc:creator>   
		<dc:rights>
          <cc:Agent>
            <dc:title>Jane Hawkey, Integration and Application Network</dc:title>
          </cc:Agent>
        </dc:rights>
        <dc:publisher>
          <cc:Agent>
            <dc:title>Integration and Application Network</dc:title>
          </cc:Agent>
        </dc:publisher>
		<dc:identifier>http://ian.umces.edu/imagelibrary/displayimage-6212.html</dc:identifier>
        <dc:source>http://ian.umces.edu/imagelibrary/displayimage-6212.html</dc:source>
        <dc:language>en-US</dc:language>
        <dc:subject>
          <rdf:Bag>
            <rdf:li>symbol,vector,illustration,diagram,template,base,ecosystem,aquatic,freshwater river,stream,tributary,terrestrial,mountains,floodplain</rdf:li>
          </rdf:Bag>
        </dc:subject>
        <dc:coverage></dc:coverage>
        <dc:description>Illustration of river base with mountains and plains</dc:description>
        <dc:contributor>
          <cc:Agent>
            <dc:title></dc:title>
          </cc:Agent>
        </dc:contributor>
      </cc:Work>
      <cc:License
         rdf:about="http://creativecommons.org/licenses/by-sa/3.0/">
        <cc:permits
           rdf:resource="http://creativecommons.org/ns#Reproduction" />
        <cc:permits
           rdf:resource="http://creativecommons.org/ns#Distribution" />
        <cc:requires
           rdf:resource="http://creativecommons.org/ns#Notice" />
        <cc:requires
           rdf:resource="http://creativecommons.org/ns#Attribution" />
        <cc:permits
           rdf:resource="http://creativecommons.org/ns#DerivativeWorks" />
        <cc:requires
           rdf:resource="http://creativecommons.org/ns#ShareAlike" />
      </cc:License>
    </rdf:RDF>
  </metadata>
	
 <defs></defs>
 <linearGradient id="ian_symbols_d933963078224b84692ff359bbc5efc8" y2="174.44" gradientUnits="userSpaceOnUse" x2="-1343.1" gradientTransform="matrix(-1 0 0 1 -842.8 0)" y1="174.44" x1="-843.05">
  <stop stop-color="#89AC7B" offset=".0056"/>
  <stop stop-color="#C3BD92" offset="1"/>
 </linearGradient>
 <path stroke-linejoin="round" d="m500.25 71.047h-364.61l-19.093 7.314-54.41 75.684s-25.973 45.069-45.094 84.609c-7.103 14.688-16.792 39.18-16.792 39.18h432.4l67.6-206.78z" stroke="#645030" stroke-linecap="round" stroke-width=".5" fill="url(#ian_symbols_d933963078224b84692ff359bbc5efc8)"/>
 <path d="m227.79 146.59c19.694-6.237 43.769-9.45 50.093-13.198 10.871-6.438-42.068-6.081-58.487-13.767-6.565-3.075-12.036-16.685-5.804-19.511 7.768-3.516 23.019-5.919 35.184-7.833 28.022-7.916 57.6-9.729 83.022-10.061 21.586-.278 53.993-12.622 69.361-10.945-13.382.858-52.836 14.087-68.795 15.766-10.625 1.113-20.276 2.389-28.128 4.204-5.441 1.262-52.646 12.287-49.109 20.194 6.417 11.703 49.142 1.082 63.77 21.235 5.657 7.792-69.76 20.914-80.539 27.936-16.345 10.651 122.15 19.321 149.7 28.103 18.361 5.85 29.05 20.362 19.57 33.104-2.827 3.802-10.28 13.164-37.827 24.579-7.046 2.922-144.65 29.806-151.79 31.085-10.568 1.898-15.886-.652-15.886-.652 10.121-.398 30.67-21.194 60.077-30.833 12.295-4.03 26.48-6.403 34.519-13.412 12.096-10.537 67.406-22.8 24.288-33.338-37.483-9.155-117.59-23.794-124.48-31.943-4.44-5.26 22.47-19.52 31.27-20.72z" fill="#937F57"/>
 <linearGradient id="ian_symbols_ec194f14a3eb2784c177a422f80e84b9" y2="113.53" gradientUnits="userSpaceOnUse" x2="280.89" y1="363.31" x1="305.09">
  <stop stop-color="#008FC9" offset="0"/>
  <stop stop-color="#4BA7CF" offset=".4561"/>
  <stop stop-color="#80B8D3" offset=".8224"/>
  <stop stop-color="#95BFD5" offset="1"/>
 </linearGradient>
 <path stroke="#007DB0" stroke-width=".5" d="m425.04 277.46c-1.542-5.471-38.495-13.423-34.701-26.438 3.842-13.207 16.26-22.514 19.084-26.322 9.482-12.741-1.208-27.251-19.57-33.108-27.548-8.776-166.04-17.443-149.7-28.096 10.78-7.027 86.192-20.147 80.536-27.936-14.633-20.158-57.354-9.536-63.771-21.237-3.529-7.908 43.667-18.934 49.111-20.193 8.134-1.881 18.609-3.689 30.175-5.437 15.527-2.342 46.83-15.051 64.958-17.421-19.274-.376-43.278 11.57-65.223 12.862-36.341 2.133-81.165 7.072-115.32 22.556-6.237 2.827-3.636 11.363 2.928 14.436 16.413 7.683 67.008 8.712 56.134 15.15-6.32 3.747-30.398 6.962-50.099 13.199-8.794 1.192-35.737 15.157-31.259 20.708 10.117 17.588 87.003 22.792 124.48 31.946 43.117 10.536-12.192 22.801-24.29 33.337-8.04 7.009-21.837 10.491-34.519 13.415-16.615 3.828-33.035 16.21-46.228 23.402-6.361 3.467-13.306 4.388-16.052 4.919-2.747.53-32.871 1.439-32.871 1.439l7.25 77.033h248.94v-78.21z" fill="url(#ian_symbols_ec194f14a3eb2784c177a422f80e84b9)"/>
 <path stroke-linejoin="round" d="m202.15 276.73c1.902.817 4.544 1.412 7.998 1.024 8.178-.92 9.994-3.683 9.994-3.683s3.636 4.602 12.729 3.683c9.089-.92 13.635-3.683 13.635-3.683s3.635 4.602 9.996 3.683c6.362-.92 10.907-3.683 10.907-3.683s3.637 3.683 10.906 3.683c7.273 0 11.82-3.683 11.82-3.683s3.637 5.52 13.63 3.683c10.002-1.841 12.728-3.683 12.728-3.683s4.544 3.683 10.909 3.683c6.36 0 12.726-3.683 12.726-3.683s6.358 4.602 13.635 3.683c7.271-.92 13.634-3.683 13.634-3.683s4.54 3.683 12.725 3.683c8.184 0 11.818-3.683 11.818-3.683s1.837 3.683 10.018 3.683c8.183 0 10.463-3.258 10.463-3.258s5.553 3.272 13.333 2.956" stroke="#007DB0" stroke-linecap="round" stroke-width=".5" fill="none"/>
 <polygon stroke-linejoin="round" fill="#937F57" stroke="#645030" stroke-linecap="round" stroke-width=".5" points="500.25 71.047 500.25 136.45 425.04 355.68 425.04 277.46"/>
 <path stroke-linejoin="round" d="m103.85 267.83c19.868 9.339 72.36 6.155 99.797 8.996-41.627 10.404-13.076 78.851-13.076 78.851h-190.32v-77.846s83.732-19.34 103.6-10z" stroke="#645030" stroke-linecap="round" stroke-width=".5" fill="#937F57"/>
 <linearGradient id="ian_symbols_10390236b4192ab48169a20b2244fe0d" y2="10.312" gradientUnits="userSpaceOnUse" x2="-1060.4" gradientTransform="matrix(-1 0 0 1 -842.8 0)" y1="42.096" x1="-1060.4">
  <stop stop-color="#DAF0F4" offset=".264"/>
  <stop stop-color="#fff" offset=".9944"/>
 </linearGradient>
 <path stroke-linejoin="round" d="m220.54 37.606c-1.167.398-2.789-.39-3.78 1.085-.984 1.473-4.993 0-4.993 0s-3.449-1.476-4.896 0c-1.446 1.473-14.329-3.847-14.329-3.847s4.966-2.745 5.971-5.793c1.001-3.058 3.186-5.731 4.745-7.337 1.558-1.593 4.363-2.721 5.477-4.903 1.114-2.183 1.675-6.909 3.701-6.47 2.024.428 3.254 2.988 5.258 4.585 2.008 1.594 3.987 3.399 5.48 3.778 1.496.372 6.019 6.641 9.131 8.096 3.121 1.448 10.459 10.016 10.459 10.016s-5.359 5.734-7.583 5.25c-2.24-.487-13.48-4.853-14.65-4.46z" stroke="#231F20" stroke-linecap="round" stroke-width=".25" fill="url(#ian_symbols_10390236b4192ab48169a20b2244fe0d)"/>
 <linearGradient id="ian_symbols_bc08d265c86c1e9481e100d4e93d2183" y2="53.199" gradientUnits="userSpaceOnUse" x2="-957.4" gradientTransform="matrix(-1 0 0 1 -842.8 0)" y1="53.199" x1="-1129.6">
  <stop stop-color="#345647" offset="0"/>
  <stop stop-color="#003D3B" offset="1"/>
 </linearGradient>
 <path stroke-linejoin="round" d="m114.66 80.623c-.924-2.215 8.803-10.247 8.985-12.581.174-2.189 2.114-.951 3.078-3.385.739-1.859 3.964-4.008 5.675-5.322 1.85-1.423 1.611-7.839 3.91-9.215 1.199-.719 2.774-1.698 3.948-2.688 2.856-2.399 6.652-6.592 12.015-7.206 2.954-.33 2.663.733 4.835.022 1.667-.549 3.354-1.597 5.062-2.268 2.113-.825 1.52-1.292 3.702-1.435.858-.062 1.819.718 2.874.747 4.068.113 8.131-2.377 10.858-4.266 4.113-2.841 8.769-9.163 10.757-9.511 1.994-.336 11.693 7.83 16.308 6.608 1.269-.34 2.285-1.878 3.369-2.097.535-.107 1.396-.643 2.174-.222.774.419.981.7 1.631.617.628-.075 1.153-.818 1.798-1.009 2.316-.696 6.122-2.673 8.371-2.329 2.595.391 6.452 4.469 8.788 5.669 2.45 1.251 5.162 2.499 8.299 2.883 2.653.331 8.646-.731 10.633.235 2.469 1.212 5.848.351 6.77.679.932.326 2.975 2.999 5.102 4.859 3.014 2.629 6 10.253 7.876 10.348 1.876.082 8.342 10 11.354 10.288l3.946 13.924c-5.784-.474-18.166-1.491-18.733-1.587-5.784-.941-11.981-.999-18.081-.51-16.735 1.342-31.84 5.746-47.451 9.582-14.366 3.539-27.536-.476-41.729-1.187-11.26-.563-28.026.71-39.025 1.42.03-.186-7.36-.975-7.12-1.063z" stroke="#231F20" stroke-linecap="round" stroke-width=".25" fill="url(#ian_symbols_bc08d265c86c1e9481e100d4e93d2183)"/>
 <linearGradient id="ian_symbols_45c495ec6ee1e7547950e1b05574b2e2" y2="24.931" gradientUnits="userSpaceOnUse" x2="-1032.6" gradientTransform="matrix(-1 0 0 1 -842.8 0)" y1="24.931" x1="-1052.2">
  <stop stop-color="#466C5A" offset=".0056"/>
  <stop stop-color="#0B4947" offset="1"/>
 </linearGradient>
 <path stroke-linejoin="round" d="m190.22 28.352s-1.538-4.75 1.373-5.299c2.546-.478 8.547 2.808 9.474 2.023 1.546-1.317 4.044-2.479 4.594-2.501 1.25-.028 3.345-1.255 3.673-1.039.32.214-1.636 6.072-1.636 6.072l-17.46.744z" stroke="#231F20" stroke-linecap="round" stroke-width=".25" fill="url(#ian_symbols_45c495ec6ee1e7547950e1b05574b2e2)"/>
 <linearGradient id="ian_symbols_eb8b1f412fe870d4612279d0a62b530c" y2="28.489" gradientUnits="userSpaceOnUse" x2="-1042" gradientTransform="matrix(-1 0 0 1 -842.8 0)" y1="28.489" x1="-1060.6">
  <stop stop-color="#466C5A" offset=".0056"/>
  <stop stop-color="#0B4947" offset="1"/>
 </linearGradient>
 <path stroke-linejoin="round" d="m206.74 35.482c-2.832-.17-5.545-5.65-7.521-6.547-.223-1.585 3.002-2.505 4.427-1.88 1.822.798 1.583-2.917 2.776-2.377.867.398 2.246-3.372 3.093-3.18 2.579.57 3.53 1.585 5.324 4.515.202.327 2.458.394 2.922.945-2.63 1.647-7.49 8.739-11.02 8.524z" stroke="#231F20" stroke-linecap="round" stroke-width=".25" fill="url(#ian_symbols_eb8b1f412fe870d4612279d0a62b530c)"/>
 <linearGradient id="ian_symbols_adea9548477b3214c17449124ff87949" y2="49.098" gradientUnits="userSpaceOnUse" x2="-999.79" gradientTransform="matrix(-1 0 0 1 -842.8 0)" y1="49.098" x1="-1050.6">
  <stop stop-color="#466C5A" offset=".0056"/>
  <stop stop-color="#0B4947" offset="1"/>
 </linearGradient>
 <path stroke-linejoin="round" d="m191.67 35.982c-1.562.621-4.495 2.648-5.613 4.582-1.12 1.929-9.86 2.806-11.409 5.15-1.551 2.346-17.91 1.477-17.654 2.531.028.108 3.211 2.383 6.455 3.45 1.462.475 3.248-.018 4.783.205 1.869.276 3.426 1.208 4.206 1.222.724.016 2.823.222 4.771.119 1.218-.057 1.924.675 3.144.724 1.713.06 2.672.344 3.528.888 1.628 1.011-2.073 1.781.348 2.299 2.757.584 5.455 1.344 8.378 2.924 2.926 1.575 2.735 1.39 4.488 1.845 5.743 1.488 9.4 1.364 10.186 1.135 2.401-.725-4.855-13.926-4.855-13.926s-5.648-14.125-7.236-14.125c-1.6-.011-1.97.359-3.53.977z" stroke="#231F20" stroke-linecap="round" stroke-width=".25" fill="url(#ian_symbols_adea9548477b3214c17449124ff87949)"/>
 <linearGradient id="ian_symbols_0ed2a0575309e86465bbbf93d3c79506" y2="42.287" gradientUnits="userSpaceOnUse" x2="-995.42" gradientTransform="matrix(-1 0 0 1 -842.8 0)" y1="42.287" x1="-1009.2">
  <stop stop-color="#345647" offset="0"/>
  <stop stop-color="#003D3B" offset="1"/>
 </linearGradient>
 <path stroke-linejoin="round" d="m153.2 47.857s-1.741-5.46.789-6.467c2.486-.983 7.571-2.652 9.037-4.198 1.468-1.544 3.366-1.463 3.366-1.463l-.688 13.114-12.51-.986z" stroke="#231F20" stroke-linecap="round" stroke-width=".25" fill="url(#ian_symbols_0ed2a0575309e86465bbbf93d3c79506)"/>
 <linearGradient id="ian_symbols_95edd89055f28e84793efc77dccb9bfb" y2="42.484" gradientUnits="userSpaceOnUse" x2="-1003.3" gradientTransform="matrix(-1 0 0 1 -842.8 0)" y1="42.484" x1="-1021.4">
  <stop stop-color="#345647" offset="0"/>
  <stop stop-color="#003D3B" offset="1"/>
 </linearGradient>
 <path stroke-linejoin="round" d="m160.48 48.757c1.188-2.552.411-4.975 2.618-7.225 2.203-2.253 2.063-5.958 3.28-5.792 3.739.503 4.347 2.345 7.716 6.883.503.683 3.341 2.574 4.5 3.747-8.79 3.803-7.83 2.901-18.12 2.387z" stroke="#231F20" stroke-linecap="round" stroke-width=".25" fill="url(#ian_symbols_95edd89055f28e84793efc77dccb9bfb)"/>
 <linearGradient id="ian_symbols_1c82662c57c6f504458d5b99be392113" y2="30.731" gradientUnits="userSpaceOnUse" x2="1453.4" gradientTransform="matrix(.996 -.0891 .1866 2.0862 -1311.8 85.546)" y1="35.963" x1="1497">
  <stop stop-color="#8ED8F8" offset=".0056"/>
  <stop stop-color="#DAF0F4" offset="1"/>
 </linearGradient>
 <path stroke-linejoin="round" d="m178.63.589c-1.144.625-4.66 4.269-5.572 6.495-.915 2.217-3.275 3.696-4.512 6.379-.507 1.084-5.049 5.861-7.938 6.98-4.244 1.652-18.335 24.652-18.269 25.41.039.47 14.784-9.509 18.307-7.99 2.2.944 6.967-9.413 9.934-8.507 5.037 1.551 10.057 5.178 10.057 5.178l5.058-13.946s-3.081-17.213-4.2-17.324c-1.13-.112-1.73-3.297-2.87-2.675z" stroke="#231F20" stroke-linecap="round" stroke-width=".25" fill="url(#ian_symbols_1c82662c57c6f504458d5b99be392113)"/>
 <linearGradient id="ian_symbols_4d8fb966eeae83c4a14fdba33bf8a63a" y2="55.993" gradientUnits="userSpaceOnUse" x2="1455.6" gradientTransform="matrix(1.0002 -.1366 .1373 2.6378 -1311.4 81.157)" y1="59.993" x1="1491.1">
  <stop stop-color="#8ED8F8" offset=".0056"/>
  <stop stop-color="#DAF0F4" offset="1"/>
 </linearGradient>
 <path stroke-linejoin="round" d="m179.42 14.848c-1.16.815-3.417 3.668-4.382 6.498-.97 2.837-7.213 3.516-8.524 6.938-1.308 3.421-14.327 10.338-14.243 11.942.01.167 3.783 2.141 5.971 3.972.984.831 29.106 12.886 29.684 12.59 1.755-.909-2.139-21.344-2.139-21.344s-2.675-21.716-3.794-21.833c-1.13-.111-1.42.409-2.58 1.237z" stroke="#231F20" stroke-linecap="round" stroke-width=".25" fill="url(#ian_symbols_4d8fb966eeae83c4a14fdba33bf8a63a)"/>
 <linearGradient id="ian_symbols_a88ebce66a71ef34f1ba122e561e3a8f" y2="26.122" gradientUnits="userSpaceOnUse" x2="1511.2" gradientTransform="matrix(.996 -.0891 .1866 2.0862 -1311.8 85.546)" y1="47.638" x1="1507.2">
  <stop stop-color="#DAF0F4" offset=".264"/>
  <stop stop-color="#fff" offset=".9944"/>
 </linearGradient>
 <path stroke-linejoin="round" d="m188.02 47.646c.277.198 2.015.325 2.912-.251.728-.469 1.929-1.193 2.169-1.293.5-.223 2.232-.233 3.746-.607 1-.256 2.295-1.254 3.58-1.662 1.354-.429 2.729-.244 4.492-.026.816.099 1.775 1.24 2.34 1.49 2.208.968 2.622 1.733 5.193.958 3.564-1.075 5.309-10.462 5.309-10.462s-8.231-10.18-10.991-12.596c-1.508-1.465-.919 2.046-2.722.513-2.124-1.812-3.935-6.581-5.501-8.571-1.691-.998-3.168-5.809-5.019-8.35-1.501-2.067-2.564-1.638-4.479-2.394-1.949-1.157-4.416-.695-5.106-1.542-1.064-1.314-2.465-2.308-3.104-2.526-1.113-.379-1.973-.175-2.217.265-.243.446 1.519.576.77 3.081-.75 2.512 2.578 6.491 1.576 10.094-.856 3.068 2.809 11.626 2.173 14.566-.921 4.234 4.305 14.059 4.097 14.066 0-.002-.41 4.38.78 5.247z" stroke="#231F20" stroke-linecap="round" stroke-width=".25" fill="url(#ian_symbols_a88ebce66a71ef34f1ba122e561e3a8f)"/>
 <linearGradient id="ian_symbols_d54e6399cb191464a9f2dbb7dada42fb" y2="42.569" gradientUnits="userSpaceOnUse" x2="-998.85" gradientTransform="matrix(-1 0 0 1 -842.8 0)" y1="42.569" x1="-1043.7">
  <stop stop-color="#466C5A" offset=".0056"/>
  <stop stop-color="#0B4947" offset="1"/>
 </linearGradient>
 <path stroke-linejoin="round" d="m189.45 24.39c-1.565.621-3.506 1.791-4.623 3.724-1.122 1.937-5.127 2.346-6.679 4.693-.626.948-8.348 5.139-12.335 6.314-5.859 1.741-9.906 8.008-9.756 8.633.097.4 8.363 9.925 13.452 10.901 3.171.601 5.672-2.198 9.914-1.685 7.226.877 14.716 3.873 14.716 3.873l6.792-20.323s-5.647-14.132-7.24-14.132c-1.59-.001-2.68-2.616-4.24-1.998z" stroke="#231F20" stroke-linecap="round" stroke-width=".25" fill="url(#ian_symbols_d54e6399cb191464a9f2dbb7dada42fb)"/>
 <linearGradient id="ian_symbols_8c135a21220a5734a52abca6c1118a44" y2="44.652" gradientUnits="userSpaceOnUse" x2="-1032.2" gradientTransform="matrix(-1 0 0 1 -842.8 0)" y1="44.652" x1="-1101.1">
  <stop stop-color="#466C5A" offset=".0056"/>
  <stop stop-color="#0B4947" offset="1"/>
 </linearGradient>
 <path stroke-linejoin="round" d="m206.27 62.958c.408.145 2.869.103 4.088-.457.99-.455 2.63-1.164 2.962-1.264.689-.224 16.641 4.925 18.425 4.485 1.881-.472 27.649-2.696 26.565-5.168-1.608-3.664-5.637-3.401-7.524-5.864-1.882-2.462-4.981-8.299-9.129-12.82-1.39-1.52-5.835-6.711-7.521-8.429-4.812-4.896-5.986-7.763-10.714-8.497-3.296-.205-5.518 12.137-7.305 11.635-2.46-.694-5.23-1.245-8.025-3.216-2.28-1.607-4.982-2.266-6.872-3.642-2.819-2.05-7.213-5.23-8.664-5.738-2.244-.793-2.842-.388-3.104.407-.32.39 2.185.355 1.32 2.512-.866 2.162 4.125 5.208 2.992 8.313-.968 2.637 4.841 9.486 4.162 11.996-.983 3.619 7.138 11.397 6.851 11.415-.02-.001-.28 3.705 1.48 4.332z" stroke="#231F20" stroke-linecap="round" stroke-width=".25" fill="url(#ian_symbols_8c135a21220a5734a52abca6c1118a44)"/>
 <linearGradient id="ian_symbols_9f1f866a5b8dfd4479594d23fb8b512f" y2="-6.9712" gradientUnits="userSpaceOnUse" x2="401.25" gradientTransform="matrix(-.9967 -.081 -.0836 1.0282 651.71 74.145)" y1="35.12" x1="401.25">
  <stop stop-color="#345647" offset="0"/>
  <stop stop-color="#003D3B" offset="1"/>
 </linearGradient>
 <path stroke-linejoin="round" d="m226.06 75.197c2.201 3.293 12.393-4.153 15.095-3.06-2.896 5.911 6.263-.721 9.783-1.018 4.014-.341 8.893 3.254 11.762 2.773 3.306-.559 3.765-3.156 8.225-3.62 1.856-.191 3.927 3.264 7.228 3.983 3.786.828 7.714-3.06 7.714-3.06s-.729-6.633-4.455-12.431c-1.658-2.585-2.452-2.99-3.461-4.589-1.444-2.294-1.921-3.223-4.188-3.795-.905-.23-1.855-2.445-2.632-2.538-.754-.088-2.758-8.794-4.344-10.199-.947-.837-1.089-2.203-2.546-2.195-3.884.013-3.511 3.409-8.911 2.465-5.394-.943-9.287 13.84-15.979 14.668-6.694.825-8.325 13.569-26.552 19.769 11.89.865 11.07-.445 13.27 2.847z" stroke="#231F20" stroke-linecap="round" stroke-width=".25" fill="url(#ian_symbols_9f1f866a5b8dfd4479594d23fb8b512f)"/>
 <linearGradient id="ian_symbols_a61ca8beec7d814401a566617a6ed27d" y2="25.106" gradientUnits="userSpaceOnUse" x2="512.54" gradientTransform="matrix(-.9967 -.081 -.0836 1.0282 651.71 74.145)" y1="50.36" x1="512.54">
  <stop stop-color="#4A694A" offset="0"/>
  <stop stop-color="#789747" offset="1"/>
 </linearGradient>
 <path stroke-linejoin="round" d="m122.97 82.876c1.321 1.974 7.436-2.491 9.056-1.835-1.738 3.545 4.04.698 6.151.519 2.409-.205 5.056.823 6.777.533 1.984-.335 1.585-.834 4.26-1.114 1.112-.116 3.032.902 5.01 1.332 2.273.498 4.627-1.834 4.627-1.834s-.433-3.979-2.668-7.46c-1-1.55-1.474-1.794-2.079-2.753-.869-1.376-1.154-1.933-2.513-2.278-.543-.138-1.114-1.467-1.58-1.521-.451-.054-1.655-5.278-2.604-6.12-.571-.504-.656-1.323-1.529-1.319-2.33.007-2.108 2.044-5.347 1.481-3.237-.566-5.573 8.305-9.589 8.801-4.017.494-4.994 8.143-15.928 11.861 7.12.519 6.63-.268 7.95 1.707z" stroke="#967D5F" stroke-linecap="round" stroke-width=".25" fill="url(#ian_symbols_a61ca8beec7d814401a566617a6ed27d)"/>
 <path stroke-linejoin="round" d="m130.09 74.225c3.349-.592 3.304-1.488 5.996-1.877.383-.056 1.419-.026 1.771-.009 2.817.148 3.39 2.618 4.445 2.814" stroke="#967D5F" stroke-linecap="round" stroke-width=".25" fill="none"/>
 <path stroke-linejoin="round" d="m134.6 77.837c3.349-.59 3.494-2.305 6.183-2.697.386-.054 1.419-.024 1.773-.004 2.816.147 3.39 2.614 4.445 2.813" stroke="#967D5F" stroke-linecap="round" stroke-width=".25" fill="none"/>
 <path stroke-linejoin="round" d="m150.29 66.489s-1.948.033-3.169 1.348c-1.223 1.314-.668.729-2.48 2.465-1.814 1.739-3.347 1.927-3.347 1.927" stroke="#967D5F" stroke-linecap="round" stroke-width=".25" fill="none"/>
 <linearGradient id="ian_symbols_b195e49dd43346a4c11eec78249a5b1d" y2="53.814" gradientUnits="userSpaceOnUse" x2="264.95" gradientTransform="matrix(1 0 0 1 9.8418 0)" y1="32.713" x1="265.32">
  <stop stop-color="#8ED8F8" offset=".0056"/>
  <stop stop-color="#DAF0F4" offset="1"/>
 </linearGradient>
 <path stroke-linejoin="round" d="m273.14 50.686c.696.259 1.674-.258 2.262.709.592.968 2.996 0 2.996 0s2.063-.967 2.93 0c.866.968 8.58-2.526 8.58-2.526s-2.972-1.801-3.575-3.803c-.598-2.005-1.907-3.76-2.842-4.814-.935-1.044-2.614-1.787-3.28-3.218-.666-1.433-1.003-4.535-2.212-4.25-1.216.284-1.952 1.963-3.154 3.015-1.199 1.044-2.388 2.23-3.281 2.476s-3.6 4.36-5.469 5.318c-1.867.949-6.265 6.573-6.265 6.573s3.211 3.764 4.544 3.446c1.32-.323 8.05-3.19 8.76-2.926z" stroke="#231F20" stroke-linecap="round" stroke-width=".25" fill="url(#ian_symbols_b195e49dd43346a4c11eec78249a5b1d)"/>
 <linearGradient id="ian_symbols_6a1d1fb9ad00cf343d2393e0f4e73357" y2="60.918" gradientUnits="userSpaceOnUse" x2="326.74" gradientTransform="matrix(1 0 0 1 9.8418 0)" y1="60.918" x1="223.62">
  <stop stop-color="#345647" offset="0"/>
  <stop stop-color="#003D3B" offset="1"/>
 </linearGradient>
 <path stroke-linejoin="round" d="m336.54 78.918c.555-1.453-5.275-6.724-5.38-8.256-.104-1.436-1.268-.624-1.844-2.224-.443-1.221-2.375-2.629-3.396-3.491-1.11-.935-.971-5.147-2.343-6.05-.718-.472-1.664-1.115-2.364-1.768-1.712-1.574-3.293-3.675-6.504-4.075-1.77-.217-2.289-.17-3.59-.638-.997-.359-2.005-1.047-3.03-1.488-1.266-.541-.907-.847-2.216-.941-.514-.042-1.089.471-1.72.488-2.438.077-4.871-1.562-6.503-2.799-2.465-1.866-5.253-6.016-6.444-6.244-1.191-.219-7 5.138-9.767 4.337-.759-.223-1.365-1.23-2.018-1.376-.319-.069-.837-.421-1.3-.144-.465.274-.59.458-.978.403-.38-.047-.69-.536-1.076-.664-1.388-.455-3.67-1.752-5.012-1.524-1.559.254-3.867 2.932-5.268 3.72-1.464.823-3.088 1.64-4.966 1.891-1.591.22-5.18-.479-6.366.158-1.482.793-3.505.228-4.059.442-.557.214-1.777 1.97-3.056 3.192-1.804 1.724-3.591 6.731-4.716 6.792-1.123.053-4.993 6.564-6.801 6.754l-2.362 9.14c3.463-.311 10.88-.98 11.219-1.043 3.465-.619 7.172-.655 10.829-.334 10.022.88 19.069 3.77 28.419 6.289 8.6 2.324 16.488-.312 24.987-.779 6.745-.368 16.787.467 23.371.935-.02-.124 4.41-.643 4.26-.703z" stroke="#231F20" stroke-linecap="round" stroke-width=".25" fill="url(#ian_symbols_6a1d1fb9ad00cf343d2393e0f4e73357)"/>
 <linearGradient id="ian_symbols_426034256ecbab44cdb9f602dd81adde" y2="42.363" gradientUnits="userSpaceOnUse" x2="281.69" gradientTransform="matrix(1 0 0 1 9.8418 0)" y1="42.363" x1="269.98">
  <stop stop-color="#466C5A" offset=".0056"/>
  <stop stop-color="#0B4947" offset="1"/>
 </linearGradient>
 <path stroke-linejoin="round" d="m291.29 44.608s.923-3.121-.82-3.479c-1.526-.314-5.117 1.845-5.672 1.326-.926-.862-2.424-1.627-2.751-1.64-.753-.018-2.007-.822-2.199-.682s.979 3.986.979 3.986l10.46.489z" stroke="#231F20" stroke-linecap="round" stroke-width=".25" fill="url(#ian_symbols_426034256ecbab44cdb9f602dd81adde)"/>
 <linearGradient id="ian_symbols_ef621b2e33669fb4a91afd837d5eecae" y2="44.698" gradientUnits="userSpaceOnUse" x2="276.07" gradientTransform="matrix(1 0 0 1 9.8418 0)" y1="44.698" x1="264.65">
  <stop stop-color="#466C5A" offset=".0056"/>
  <stop stop-color="#0B4947" offset="1"/>
 </linearGradient>
 <path stroke-linejoin="round" d="m281.4 49.289c1.695-.113 3.325-3.709 4.503-4.298.138-1.042-1.798-1.645-2.648-1.234-1.095.522-.947-1.916-1.661-1.562-.522.261-1.349-2.211-1.855-2.086-1.543.373-2.112 1.041-3.188 2.965-.124.213-1.779-.02-2.054.342 1.56 1.081 4.78 6.012 6.9 5.873z" stroke="#231F20" stroke-linecap="round" stroke-width=".25" fill="url(#ian_symbols_ef621b2e33669fb4a91afd837d5eecae)"/>
 <linearGradient id="ian_symbols_152b2d5a500b6004655829a4d665ddad" y2="58.227" gradientUnits="userSpaceOnUse" x2="301.35" gradientTransform="matrix(1 0 0 1 9.8418 0)" y1="58.227" x1="270.94">
  <stop stop-color="#466C5A" offset=".0056"/>
  <stop stop-color="#0B4947" offset="1"/>
 </linearGradient>
 <path stroke-linejoin="round" d="m290.43 49.617c.934.409 2.688 1.739 3.358 3.006.672 1.268 5.906 1.845 6.835 3.383.928 1.538 10.723.968 10.573 1.661-.017.07-1.924 1.565-3.867 2.265-.874.31-1.945-.011-2.865.133-1.12.182-2.048.791-2.517.802-.434.013-1.69.146-2.858.079-.729-.036-1.153.443-1.882.473-1.026.042-1.597.224-2.11.585-.98.663 1.238 1.167-.211 1.507-1.65.385-3.269.881-5.019 1.921-1.755 1.035-1.639.911-2.687 1.211-3.441.976-5.633.896-6.101.744-1.437-.474 2.906-9.143 2.906-9.143s3.382-9.271 4.333-9.271c.96-.004 1.18.240 2.12.644z" stroke="#231F20" stroke-linecap="round" stroke-width=".25" fill="url(#ian_symbols_152b2d5a500b6004655829a4d665ddad)"/>
 <linearGradient id="ian_symbols_2fc83ff6881736446d1b8ee68ab1c587" y2="53.755" gradientUnits="userSpaceOnUse" x2="303.97" gradientTransform="matrix(1 0 0 1 9.8418 0)" y1="53.755" x1="295.72">
  <stop stop-color="#345647" offset="0"/>
  <stop stop-color="#003D3B" offset="1"/>
 </linearGradient>
 <path stroke-linejoin="round" d="m313.46 57.412s1.038-3.584-.47-4.245c-1.492-.645-4.539-1.741-5.414-2.755-.879-1.013-2.016-.962-2.016-.962l.412 8.612 7.49-.650z" stroke="#231F20" stroke-linecap="round" stroke-width=".25" fill="url(#ian_symbols_2fc83ff6881736446d1b8ee68ab1c587)"/>
 <linearGradient id="ian_symbols_dbf22021eaad0284cd2b2c1cdf211726" y2="53.884" gradientUnits="userSpaceOnUse" x2="299.26" gradientTransform="matrix(1 0 0 1 9.8418 0)" y1="53.884" x1="288.41">
  <stop stop-color="#345647" offset="0"/>
  <stop stop-color="#003D3B" offset="1"/>
 </linearGradient>
 <path stroke-linejoin="round" d="m309.1 58.002c-.712-1.677-.243-3.266-1.568-4.742-1.318-1.478-1.234-3.913-1.965-3.804-2.239.33-2.602 1.541-4.621 4.521-.303.446-2.002 1.687-2.692 2.459 5.27 2.499 4.69 1.902 10.85 1.566z" stroke="#231F20" stroke-linecap="round" stroke-width=".25" fill="url(#ian_symbols_dbf22021eaad0284cd2b2c1cdf211726)"/>
 <linearGradient id="ian_symbols_dc8ab3edb0a96554cdc1e075e4c842a9" y2="-15.208" gradientUnits="userSpaceOnUse" x2="161.86" gradientTransform="matrix(-.996 -.0891 -.1866 2.0862 478.88 85.546)" y1="-12.07" x1="188.01">
  <stop stop-color="#DAF0F4" offset="0"/>
  <stop stop-color="#fff" offset=".9944"/>
 </linearGradient>
 <path stroke-linejoin="round" d="m298.24 26.385c.686.41 2.792 2.802 3.335 4.262.549 1.455 1.959 2.426 2.705 4.188.302.71 3.022 3.849 4.749 4.583 2.546 1.083 10.982 16.181 10.943 16.679-.026.309-8.852-6.243-10.961-5.245-1.323.618-4.175-6.18-5.949-5.583-3.018 1.019-6.025 3.397-6.025 3.397l-3.026-9.153s1.842-11.301 2.511-11.371c.67-.076 1.03-2.168 1.72-1.757z" stroke="#231F20" stroke-linecap="round" stroke-width=".25" fill="url(#ian_symbols_dc8ab3edb0a96554cdc1e075e4c842a9)"/>
 <linearGradient id="ian_symbols_01172f46077c279401f534d7a0bd04bd" y2="-4.8704" gradientUnits="userSpaceOnUse" x2="163.96" gradientTransform="matrix(-1.0002 -.1366 -.1373 2.6378 478.48 81.157)" y1="-2.3564" x1="186.25">
  <stop stop-color="#DAF0F4" offset="0"/>
  <stop stop-color="#fff" offset=".9944"/>
 </linearGradient>
 <path stroke-linejoin="round" d="m297.76 35.744c.693.534 2.045 2.406 2.625 4.266.582 1.863 4.319 2.308 5.105 4.556.781 2.243 9.643 7.45 9.593 8.501-.006.112-3.329.74-4.641 1.944-.589.543-12.821 6.134-13.535 6.661-2.345 1.747-3.895 1.796-4.241 1.601-1.051-.597 1.28-14.013 1.28-14.013s1.604-14.25 2.271-14.327c.68-.073.85.265 1.55.811z" stroke="#231F20" stroke-linecap="round" stroke-width=".25" fill="url(#ian_symbols_01172f46077c279401f534d7a0bd04bd)"/>
 <linearGradient id="ian_symbols_0e05da0f9f8d9994a9696dda5523de4d" y2="-4.5605" gradientUnits="userSpaceOnUse" x2="194.35" gradientTransform="matrix(-.996 -.0891 -.1866 2.0862 478.88 85.546)" y1="-18.984" x1="196.52">
  <stop stop-color="#8ED8F8" offset=".0056"/>
  <stop stop-color="#DAF0F4" offset="1"/>
 </linearGradient>
 <path stroke-linejoin="round" d="m292.61 57.273c-.165.129-1.206.212-1.745-.167-.435-.31-1.149-.782-1.296-.849-.304-.148-1.34-.151-2.244-.401-.599-.166-1.375-.821-2.143-1.088-.813-.283-1.638-.16-2.692-.017-.487.066-1.063.813-1.4.978-1.322.634-1.57 1.137-3.111.626-2.133-.702-3.181-6.865-3.181-6.865s3.769-5.638 5.422-7.224c.904-.961 1.712.298 2.79-.708 1.276-1.189 2.357-4.319 3.296-5.628 1.014-.655 1.9-3.811 3.002-5.48.899-1.357 1.54-1.075 2.686-1.568 1.165-.762 2.646-.458 3.058-1.014.641-.864 1.477-1.516 1.859-1.659.664-.248 1.184-.115 1.329.176.144.292-.911.376-.462 2.021.448 1.648-1.544 4.259-.944 6.625.511 2.015-1.682 7.631-1.297 9.561.546 2.779-2.582 9.228-2.458 9.234-.02.001.23 2.881-.48 3.447z" stroke="#231F20" stroke-linecap="round" stroke-width=".25" fill="url(#ian_symbols_0e05da0f9f8d9994a9696dda5523de4d)"/>
 <linearGradient id="ian_symbols_4550fe140513e8c46944985449fb99c1" y2="53.717" gradientUnits="userSpaceOnUse" x2="301.91" gradientTransform="matrix(1 0 0 1 9.8418 0)" y1="53.717" x1="275.04">
  <stop stop-color="#466C5A" offset=".0056"/>
  <stop stop-color="#0B4947" offset="1"/>
 </linearGradient>
 <path stroke-linejoin="round" d="m291.75 42.007c.938.409 2.099 1.177 2.768 2.446.673 1.27 3.072 1.538 4.003 3.08.372.621 4.998 3.374 7.384 4.143 3.513 1.143 5.937 5.257 5.846 5.669-.059.261-5.009 6.515-8.056 7.155-1.899.395-3.909-1.941-6.45-1.606-4.326.578-6.874 2.597-6.874 2.597l-5.494-12.896s3.383-9.276 4.334-9.276c.95-.001 1.61-1.717 2.54-1.312z" stroke="#231F20" stroke-linecap="round" stroke-width=".25" fill="url(#ian_symbols_4550fe140513e8c46944985449fb99c1)"/>
 <linearGradient id="ian_symbols_f4283d45438fe3b475665cc8b0dfa32b" y2="55.307" gradientUnits="userSpaceOnUse" x2="281.93" gradientTransform="matrix(1 0 0 1 9.8418 0)" y1="55.307" x1="240.65">
  <stop stop-color="#466C5A" offset=".0056"/>
  <stop stop-color="#0B4947" offset="1"/>
 </linearGradient>
 <path stroke-linejoin="round" d="m281.68 67.325c-.244.096-1.72.067-2.446-.301-.592-.298-1.576-.762-1.774-.83-.415-.145-9.968 3.233-11.032 2.944-1.129-.308-16.562-1.771-15.912-3.39.964-2.406 3.377-2.233 4.505-3.851 1.129-1.616 2.987-5.448 5.466-8.417.839-.998 3.496-4.402 4.507-5.532 2.884-3.214 3.586-5.095 6.418-5.579 1.973-.133 3.304 7.969 4.374 7.64 1.474-.458 3.131-.82 4.806-2.112 1.366-1.054 2.983-1.486 4.116-2.392 1.684-1.348 4.321-3.434 5.187-3.766 1.346-.518 1.701-.253 1.859.268.192.256-1.307.234-.792 1.65.521 1.416-2.468 3.417-1.79 5.454.581 1.732-2.901 6.229-2.492 7.877.589 2.374-4.275 7.481-4.103 7.492-.02 0 .13 2.434-.92 2.845z" stroke="#231F20" stroke-linecap="round" stroke-width=".25" fill="url(#ian_symbols_f4283d45438fe3b475665cc8b0dfa32b)"/>
 <linearGradient id="ian_symbols_7e867e84e293dea4e598fef958e1d2fe" y2="132.45" gradientUnits="userSpaceOnUse" x2="1801.5" gradientTransform="matrix(.9967 -.081 .0836 1.0282 -1484.7 74.145)" y1="148.93" x1="1801.5">
  <stop stop-color="#4A694A" offset="0"/>
  <stop stop-color="#789747" offset="1"/>
 </linearGradient>
 <path stroke-linejoin="round" d="m331.57 80.398c-.792 1.297-4.456-1.633-5.423-1.204 1.038 2.329-2.749.546-4.016.43-1.442-.133-2.7.45-3.729.261-1.188-.221-1.058-.272-2.661-.455-.663-.077-1.704.315-2.889.6-1.36.325-2.771-1.207-2.771-1.207s.257-2.612 1.6-4.897c.597-1.016.884-1.177 1.242-1.807.521-.902.692-1.271 1.506-1.493.322-.093.668-.967.945-1 .271-.037.991-3.464 1.561-4.017.344-.33.393-.871.914-.865 1.395.002 1.262 1.341 3.201.969 1.941-.37 3.342 5.452 5.743 5.778 2.405.323 2.993 5.344 9.543 7.785-4.27.344-3.98-.173-4.76 1.122z" stroke="#967D5F" stroke-linecap="round" stroke-width=".25" fill="url(#ian_symbols_7e867e84e293dea4e598fef958e1d2fe)"/>
 <path stroke-linejoin="round" d="m327.3 74.718c-2.005-.387-1.979-.975-3.593-1.231-.229-.036-.851-.017-1.062-.003-1.684.095-2.029 1.718-2.662 1.847" stroke="#967D5F" stroke-linecap="round" stroke-width=".25" fill="none"/>
 <path stroke-linejoin="round" d="m324.6 77.091c-2.005-.389-2.092-1.514-3.702-1.77-.234-.034-.854-.015-1.064-.004-1.685.096-2.032 1.716-2.662 1.846" stroke="#967D5F" stroke-linecap="round" stroke-width=".25" fill="none"/>
 <path stroke-linejoin="round" d="m315.21 69.644s1.165.019 1.895.883c.731.864.401.479 1.487 1.62 1.086 1.139 2.007 1.264 2.007 1.264" stroke="#967D5F" stroke-linecap="round" stroke-width=".25" fill="none"/>
 <linearGradient id="ian_symbols_85b4cc7d8b9857147df4c8d4bf62442b" y2="6.8149" gradientUnits="userSpaceOnUse" x2="439.53" gradientTransform="matrix(-.9967 -.081 -.0836 1.0282 651.71 74.145)" y1="48.905" x1="439.53">
  <stop stop-color="#4A694A" offset="0"/>
  <stop stop-color="#789747" offset="1"/>
 </linearGradient>
 <path stroke-linejoin="round" d="m186.75 86.271c2.198 3.294 12.39-4.152 15.088-3.06-2.897 5.913 6.267-.721 9.785-1.019 4.019-.339 8.896 3.256 11.76 2.773 3.306-.557 3.769-3.153 8.228-3.618 1.854-.192 3.928 3.262 7.227 3.985 3.785.825 7.71-3.061 7.71-3.061s-.721-6.635-4.446-12.433c-1.666-2.584-2.455-2.989-3.461-4.587-1.452-2.293-1.928-3.225-4.191-3.796-.906-.229-1.855-2.443-2.632-2.536-.752-.092-2.754-8.795-4.341-10.199-.952-.839-1.091-2.204-2.544-2.195-3.885.013-3.516 3.409-8.912 2.463-5.396-.943-9.289 13.841-15.986 14.668-6.688.826-8.321 13.571-26.548 19.771 11.88.861 11.06-.449 13.26 2.844z" stroke="#967D5F" stroke-linecap="round" stroke-width=".25" fill="url(#ian_symbols_85b4cc7d8b9857147df4c8d4bf62442b)"/>
 <path stroke-linejoin="round" d="m198.61 71.848c5.583-.987 5.51-2.478 9.998-3.127.64-.094 2.365-.042 2.952-.009 4.691.243 5.649 4.356 7.408 4.687" stroke="#967D5F" stroke-linecap="round" stroke-width=".25" fill="none"/>
 <path stroke-linejoin="round" d="m206.13 77.872c5.579-.984 5.818-3.843 10.302-4.492.643-.093 2.366-.042 2.955-.012 4.694.247 5.649 4.359 7.408 4.69" stroke="#967D5F" stroke-linecap="round" stroke-width=".25" fill="none"/>
 <path stroke-linejoin="round" d="m231.9 59.086s-2.869-.075-4.906 2.115c-2.036 2.19-1.11 1.218-4.132 4.114-3.024 2.893-5.578 3.21-5.578 3.21" stroke="#967D5F" stroke-linecap="round" stroke-width=".25" fill="none"/>
 <linearGradient id="ian_symbols_c4b59c0ab3793e5431d3596dc33dcb3f" y2="120.05" gradientUnits="userSpaceOnUse" x2="1763.7" gradientTransform="matrix(.9967 -.081 .0836 1.0282 -1484.7 74.145)" y1="147.48" x1="1763.7">
  <stop stop-color="#4A694A" offset="0"/>
  <stop stop-color="#789747" offset="1"/>
 </linearGradient>
 <path stroke-linejoin="round" d="m298.9 81.266c-1.318 2.162-7.533-1.52-9.15-.803 1.734 3.881-6.078.996-8.188.803-2.404-.227-2.802-.407-4.521-.724-1.979-.366-2.256-2.07-4.926-2.375-1.111-.126-2.351 2.143-4.326 2.618-2.27.54-4.622-2.011-4.622-2.011s.433-4.355 2.664-8.161c.998-1.696 1.47-1.962 2.075-3.011.871-1.505 1.152-2.116 2.508-2.493.542-.149 1.113-1.604 1.578-1.665.452-.059 1.648-5.773 2.602-6.693.566-.55.65-1.447 1.521-1.442 2.326.01 2.105 2.238 5.338 1.617 3.233-.617 5.563 9.086 9.571 9.627 4.007.542 5.312 9.035 16.224 13.107-7.1.568-7.02-.556-8.34 1.606z" stroke="#967D5F" stroke-linecap="round" stroke-width=".25" fill="url(#ian_symbols_c4b59c0ab3793e5431d3596dc33dcb3f)"/>
 <path stroke-linejoin="round" d="m291.88 71.934c-3.339-.647-3.301-1.627-5.986-2.053-.382-.062-1.414-.029-1.768-.007-2.811.161-3.383 2.862-4.436 3.077" stroke="#967D5F" stroke-linecap="round" stroke-width=".25" fill="none"/>
 <path stroke-linejoin="round" d="m287.38 75.885c-3.346-.643-3.485-2.522-6.172-2.945-.386-.062-1.416-.03-1.765-.009-2.815.161-3.386 2.86-4.439 3.078" stroke="#967D5F" stroke-linecap="round" stroke-width=".25" fill="none"/>
 <path stroke-linejoin="round" d="m271.72 63.472s1.945.034 3.165 1.473c1.219 1.437.666.798 2.475 2.7 1.811 1.901 3.342 2.107 3.342 2.107" stroke="#967D5F" stroke-linecap="round" stroke-width=".25" fill="none"/>
 <linearGradient id="ian_symbols_8cee833ab1267cd4515608fab3949ae9" y2="121.56" gradientUnits="userSpaceOnUse" x2="1740.9" gradientTransform="matrix(.9967 -.081 .0836 1.0282 -1484.7 74.145)" y1="149.02" x1="1740.9">
  <stop stop-color="#4A694A" offset="0"/>
  <stop stop-color="#789747" offset="1"/>
 </linearGradient>
 <path stroke-linejoin="round" d="m276.54 84.78c-1.319 2.162-7.421-2.724-9.038-2.008 1.738 3.882-3.751-.473-5.859-.669-2.405-.222-5.326 2.136-7.043 1.822-1.979-.366-2.255-2.073-4.927-2.376-1.107-.124-2.353 2.143-4.329 2.615-2.267.543-4.618-2.008-4.618-2.008s.433-4.354 2.663-8.162c1-1.692 1.473-1.962 2.079-3.011.866-1.506 1.148-2.117 2.507-2.491.542-.151 1.112-1.606 1.577-1.666.448-.058 1.651-5.771 2.601-6.693.567-.551.651-1.446 1.52-1.441 2.33.008 2.106 2.239 5.342 1.619 3.228-.62 5.562 9.084 9.57 9.627 4.01.542 4.981 8.907 15.901 12.978-7.11.563-6.62-.299-7.94 1.864z" stroke="#967D5F" stroke-linecap="round" stroke-width=".25" fill="url(#ian_symbols_8cee833ab1267cd4515608fab3949ae9)"/>
 <path stroke-linejoin="round" d="m269.44 75.312c-3.344-.645-3.3-1.626-5.986-2.051-.385-.061-1.416-.029-1.765-.008-2.815.162-3.386 2.859-4.438 3.078" stroke="#967D5F" stroke-linecap="round" stroke-width=".25" fill="none"/>
 <path stroke-linejoin="round" d="m264.94 79.267c-3.338-.645-3.485-2.521-6.171-2.95-.382-.058-1.414-.026-1.77-.007-2.809.163-3.382 2.862-4.438 3.079" stroke="#967D5F" stroke-linecap="round" stroke-width=".25" fill="none"/>
 <path stroke-linejoin="round" d="m249.28 66.852s1.944.035 3.164 1.474c1.217 1.437.663.799 2.476 2.699 1.811 1.9 3.338 2.108 3.338 2.108" stroke="#967D5F" stroke-linecap="round" stroke-width=".25" fill="none"/>
</svg>
